<svg xmlns="http://www.w3.org/2000/svg" xmlns:xlink="http://www.w3.org/1999/xlink" width="48" zoomAndPan="magnify" viewBox="0 0 36 36.000001" height="48" preserveAspectRatio="xMidYMid meet" version="1.0"><defs><clipPath id="b84820c6ff"><path d="M 9 1.414062 L 27 1.414062 L 27 27 L 9 27 Z M 9 1.414062 " clip-rule="nonzero"/></clipPath><clipPath id="e7b218affe"><path d="M 1.917969 17 L 34.027344 17 L 34.027344 33.519531 L 1.917969 33.519531 Z M 1.917969 17 " clip-rule="nonzero"/></clipPath><clipPath id="f4fa78cfa6"><path d="M 9 2.070312 L 27 2.070312 L 27 27 L 9 27 Z M 9 2.070312 " clip-rule="nonzero"/></clipPath><clipPath id="a15cfbbabe"><path d="M 2.574219 17 L 33.222656 17 L 33.222656 32.71875 L 2.574219 32.71875 Z M 2.574219 17 " clip-rule="nonzero"/></clipPath></defs><g clip-path="url(#b84820c6ff)"><path fill="#ffffff" d="M 18.070312 2.945312 C 22.035156 2.945312 25.257812 6.171875 25.257812 10.136719 C 25.257812 13.25 20.539062 20.816406 18.070312 24.433594 C 15.601562 20.816406 10.878906 13.25 10.878906 10.136719 C 10.878906 6.171875 14.105469 2.945312 18.070312 2.945312 Z M 17.445312 26.222656 C 17.585938 26.425781 17.820312 26.546875 18.070312 26.546875 C 18.320312 26.546875 18.550781 26.425781 18.695312 26.222656 C 18.714844 26.195312 20.726562 23.347656 22.707031 19.996094 C 25.417969 15.414062 26.792969 12.097656 26.792969 10.136719 C 26.792969 5.324219 22.878906 1.414062 18.070312 1.414062 C 13.261719 1.414062 9.347656 5.324219 9.347656 10.136719 C 9.347656 12.097656 10.722656 15.414062 13.433594 19.996094 C 15.414062 23.347656 17.421875 26.195312 17.445312 26.222656 " fill-opacity="1" fill-rule="nonzero"/></g><path fill="#ffffff" d="M 15.691406 10.136719 C 15.691406 8.824219 16.757812 7.757812 18.070312 7.757812 C 19.382812 7.757812 20.449219 8.824219 20.449219 10.136719 C 20.449219 11.445312 19.382812 12.515625 18.070312 12.515625 C 16.757812 12.515625 15.691406 11.445312 15.691406 10.136719 Z M 21.980469 10.136719 C 21.980469 7.976562 20.226562 6.222656 18.070312 6.222656 C 15.914062 6.222656 14.160156 7.976562 14.160156 10.136719 C 14.160156 12.292969 15.914062 14.046875 18.070312 14.046875 C 20.226562 14.046875 21.980469 12.292969 21.980469 10.136719 " fill-opacity="1" fill-rule="nonzero"/><g clip-path="url(#e7b218affe)"><path fill="#ffffff" d="M 33.988281 32.640625 L 30.066406 18.511719 C 29.972656 18.179688 29.671875 17.953125 29.328125 17.953125 L 26.632812 17.953125 C 26.210938 17.953125 25.867188 18.292969 25.867188 18.71875 C 25.867188 19.140625 26.210938 19.484375 26.632812 19.484375 L 28.742188 19.484375 L 32.242188 32.078125 L 3.75 32.078125 L 7.25 19.484375 L 9.507812 19.484375 C 9.929688 19.484375 10.273438 19.140625 10.273438 18.71875 C 10.273438 18.292969 9.929688 17.953125 9.507812 17.953125 L 6.667969 17.953125 C 6.320312 17.953125 6.019531 18.179688 5.925781 18.511719 L 2.003906 32.640625 C 1.941406 32.871094 1.988281 33.117188 2.132812 33.308594 C 2.277344 33.5 2.503906 33.613281 2.742188 33.613281 L 33.25 33.613281 C 33.488281 33.613281 33.714844 33.5 33.859375 33.308594 C 34.003906 33.117188 34.050781 32.871094 33.988281 32.640625 " fill-opacity="1" fill-rule="nonzero"/></g><g clip-path="url(#f4fa78cfa6)"><path fill="#ffffff" d="M 18.066406 3.539062 C 21.867188 3.539062 24.960938 6.632812 24.960938 10.433594 C 24.960938 13.421875 20.433594 20.675781 18.066406 24.148438 C 15.699219 20.675781 11.175781 13.421875 11.175781 10.433594 C 11.175781 6.632812 14.265625 3.539062 18.066406 3.539062 Z M 17.46875 25.863281 C 17.605469 26.054688 17.828125 26.171875 18.066406 26.171875 C 18.304688 26.171875 18.53125 26.054688 18.667969 25.863281 C 18.6875 25.835938 20.613281 23.101562 22.515625 19.890625 C 25.113281 15.496094 26.433594 12.316406 26.433594 10.433594 C 26.433594 5.824219 22.679688 2.070312 18.066406 2.070312 C 13.457031 2.070312 9.703125 5.824219 9.703125 10.433594 C 9.703125 12.316406 11.023438 15.496094 13.621094 19.890625 C 15.519531 23.101562 17.449219 25.835938 17.46875 25.863281 " fill-opacity="1" fill-rule="nonzero"/></g><path fill="#ffffff" d="M 15.789062 10.433594 C 15.789062 9.175781 16.8125 8.152344 18.066406 8.152344 C 19.324219 8.152344 20.347656 9.175781 20.347656 10.433594 C 20.347656 11.691406 19.324219 12.714844 18.066406 12.714844 C 16.8125 12.714844 15.789062 11.691406 15.789062 10.433594 Z M 21.816406 10.433594 C 21.816406 8.367188 20.136719 6.683594 18.066406 6.683594 C 16 6.683594 14.316406 8.367188 14.316406 10.433594 C 14.316406 12.503906 16 14.1875 18.066406 14.1875 C 20.136719 14.1875 21.816406 12.503906 21.816406 10.433594 " fill-opacity="1" fill-rule="nonzero"/><g clip-path="url(#a15cfbbabe)"><path fill="#ffffff" d="M 33.332031 32.015625 L 29.570312 18.46875 C 29.480469 18.148438 29.191406 17.929688 28.863281 17.929688 L 26.277344 17.929688 C 25.871094 17.929688 25.542969 18.257812 25.542969 18.664062 C 25.542969 19.070312 25.871094 19.398438 26.277344 19.398438 L 28.304688 19.398438 L 31.65625 31.476562 L 4.335938 31.476562 L 7.691406 19.398438 L 9.855469 19.398438 C 10.261719 19.398438 10.59375 19.070312 10.59375 18.664062 C 10.59375 18.257812 10.261719 17.929688 9.855469 17.929688 L 7.132812 17.929688 C 6.800781 17.929688 6.511719 18.148438 6.425781 18.46875 L 2.660156 32.015625 C 2.601562 32.234375 2.644531 32.472656 2.785156 32.65625 C 2.921875 32.839844 3.140625 32.945312 3.371094 32.945312 L 32.625 32.945312 C 32.855469 32.945312 33.070312 32.839844 33.210938 32.65625 C 33.347656 32.472656 33.394531 32.234375 33.332031 32.015625 " fill-opacity="1" fill-rule="nonzero"/></g></svg>